# xmcd CD database file
# Copyright (C) 1994 Ti Kan
#
# Track frame offsets:
#	150
#	16575
#	33647
#	49550
#	67202
#	79972
#	95347
#	108887
#	121935
#	137522
#
# Disc length: 1863 seconds
#
# Revision: 1
# Processed by: cddbd v1.4b41PL1 Copyright (c) Steve Scherf et al.
# Submitted via: xmcd 1.3
#
DISCID=7a07450a,7a083a0a,82083c0a
DTITLE=Trisha Yearwood - Thinkin' About You
DYEAR=1900
DGENRE=
TTITLE0=Thinkin' About You
TTITLE1=XXX's and OOO's (An American Girl)
TTITLE2=You Can Sleep While I Drive
TTITLE3=The Restless Kind
TTITLE4=On A Bus to St. Cloud
TTITLE5=Fairytale
TTITLE6=Those Words We Said
TTITLE7=O Mexico
TTITLE8=I Wanna Go Too Far
TTITLE9=Till I get It Right
EXTD=
EXTT0=
EXTT1=
EXTT2=
EXTT3=
EXTT4=
EXTT5=
EXTT6=
EXTT7=
EXTT8=
EXTT9=
PLAYORDER=
